<svg xmlns="http://www.w3.org/2000/svg" width="20" height="20" viewBox="0 0 20 20"><g fill="#000" fill-rule="evenodd" transform="translate(-.25)"><path fill-rule="nonzero" d="M14.2 0L6.4 0C3.3 0 0.8 2.7 0.8 6L0.8 14C0.8 17.3 3.3 20 6.4 20L14.2 20C17.2 20 19.8 17.3 19.8 14L19.8 6C19.8 2.7 17.2 0 14.2 0ZM17.9 14C17.9 16.2 16.2 18 14.2 18L6.4 18C4.4 18 2.7 16.2 2.7 14L2.7 6C2.7 3.8 4.4 2 6.4 2L14.2 2C16.2 2 17.9 3.8 17.9 6L17.9 14ZM10.2 4.8C7.5 4.8 5.3 7.2 5.3 10 5.3 12.8 7.5 15.2 10.2 15.2 12.9 15.2 15.2 12.8 15.2 10 15.2 7.2 12.9 4.8 10.2 4.8ZM10.2 13.2C8.5 13.2 7.2 11.8 7.2 10 7.2 8.2 8.5 6.8 10.2 6.8 11.9 6.8 13.3 8.2 13.3 10 13.3 11.8 11.9 13.2 10.2 13.2Z"/><ellipse cx="15" cy="4.8" rx="1.2" ry="1.3"/></g></svg>